<svg width="12" height="13" viewBox="0 0 12 13" fill="none" xmlns="http://www.w3.org/2000/svg">
<path d="M5.96598 8.66567C6.72092 8.66593 7.33274 9.27817 7.33249 10.0331C7.33223 10.7881 6.71999 11.3999 5.96504 11.3996C5.21009 11.3994 4.59828 10.7872 4.59853 10.0322C4.59967 9.27758 5.21137 8.6663 5.9659 8.66567L5.96598 8.66567ZM5.96531 10.6288C6.29454 10.6289 6.56153 10.3621 6.56164 10.0329C6.56175 9.70363 6.29495 9.43665 5.96572 9.43654C5.63649 9.43643 5.3695 9.70324 5.36939 10.0325C5.36959 10.3616 5.63622 10.6284 5.96529 10.6288L5.96533 10.6288L5.96531 10.6288ZM7.81985 12.4897L7.04901 12.4895C7.04921 11.8906 6.56391 11.405 5.96505 11.4048C5.3662 11.4046 4.88056 11.8899 4.88036 12.4887L4.10949 12.4885C4.11189 11.4637 4.94092 10.6334 5.96484 10.6288L5.96531 10.6288C6.98972 10.6341 7.81819 11.4649 7.81986 12.4896L7.81985 12.4897ZM9.89219 8.66701C10.6471 8.66727 11.259 9.2795 11.2587 10.0345C11.2584 10.7894 10.6462 11.4012 9.89125 11.401C9.13631 11.4007 8.52449 10.7885 8.52474 10.0335C8.52588 9.27891 9.13758 8.66764 9.89211 8.66701L9.89219 8.66701ZM9.89152 10.6301C10.2207 10.6302 10.4877 10.3634 10.4878 10.0342C10.488 9.70497 10.2212 9.43799 9.89192 9.43788C9.56269 9.43777 9.2957 9.70458 9.29559 10.0338C9.29578 10.3629 9.5624 10.6297 9.89148 10.6301L9.89152 10.6301L9.89152 10.6301ZM11.7461 12.4911L10.9752 12.4908C10.9754 11.8905 10.489 11.4038 9.8887 11.4035C9.28842 11.4033 8.80163 11.8898 8.80143 12.4901L8.03057 12.4898C8.03092 11.4638 8.86293 10.6324 9.88894 10.6327C10.9149 10.6331 11.7464 11.4651 11.746 12.4911L11.7461 12.4911ZM2.03978 8.66433C2.79472 8.66459 3.40654 9.27683 3.40629 10.0318C3.40603 10.7867 2.79379 11.3985 2.03884 11.3983C1.2839 11.398 0.672076 10.7858 0.672334 10.0308C0.673469 9.27624 1.28517 8.66496 2.0397 8.66433L2.03978 8.66433ZM2.03911 10.6274C2.36834 10.6276 2.63533 10.3608 2.63544 10.0315C2.63555 9.70229 2.36875 9.43531 2.03952 9.4352C1.71029 9.43509 1.44331 9.7019 1.44319 10.0311C1.44339 10.3603 1.71003 10.6271 2.0391 10.6275L2.03913 10.6275L2.03911 10.6274ZM3.8988 12.4884L3.12795 12.4881C3.12816 11.8879 2.6417 11.4011 2.04142 11.4009C1.44114 11.4007 0.95435 11.8871 0.954146 12.4874L0.183275 12.4871C0.183625 11.4611 1.01567 10.6297 2.04167 10.63C3.06767 10.6304 3.89913 11.4624 3.89878 12.4884L3.8988 12.4884ZM1.55424 0.816907L10.3831 0.819918C11.1377 0.821053 11.749 1.43275 11.7496 2.18728L11.7487 4.6408C11.7486 5.01781 11.5962 5.35922 11.3496 5.60678L11.3496 5.60672C11.1044 5.85297 10.7651 6.00531 10.3903 6.00518L9.78517 6.00497L9.78473 7.31029L7.81334 5.99401L7.10825 5.99377L5.96651 7.13477L4.82551 5.99299L4.12044 5.99275L2.14817 7.30767L2.14862 6.00236L1.54353 6.00215C1.16865 6.00202 0.829434 5.84947 0.584456 5.60309L0.584399 5.60303C0.338042 5.35518 0.185824 5.01355 0.185953 4.63642L0.185954 4.63462L0.185954 4.63471L0.18679 2.18341C0.187925 1.42878 0.799625 0.817493 1.55415 0.816872L1.55423 0.816872L1.55424 0.816907ZM10.3867 5.23433L10.3882 5.23433C10.5509 5.23438 10.6982 5.16822 10.8045 5.06131L10.8046 5.06128C10.9117 4.95382 10.9779 4.80559 10.9779 4.64187L10.9779 4.63822L10.9779 4.6384L10.9788 2.1871C10.9786 1.85797 10.7119 1.59116 10.3829 1.59075L1.55397 1.58774C1.22486 1.58793 0.958057 1.85455 0.957649 2.18363L0.956812 4.6378C0.956756 4.80172 1.02285 4.95022 1.12988 5.05801L1.12985 5.05798C1.23615 5.16499 1.38338 5.23126 1.54607 5.23131L2.9197 5.23178L2.91949 5.86902L3.88738 5.22183L5.14489 5.22226L5.96686 6.04478L6.78938 5.22282L8.0474 5.22325L9.01434 5.8711L9.01456 5.23386L10.3867 5.23433ZM6.41511 2.67889L6.41237 2.67889C6.23261 2.67883 6.07242 2.76266 5.96883 2.89339L5.96794 2.89457C5.86355 2.76259 5.70342 2.67864 5.52368 2.67858L5.52077 2.67857L5.52092 2.67857C5.23709 2.67848 5.00694 2.90848 5.00684 3.1923C4.98604 3.90148 5.96753 4.14848 5.96753 4.14848C5.96753 4.14848 6.94914 3.90215 6.94939 3.16727C6.93566 2.89453 6.71122 2.67855 6.43628 2.67845C6.42883 2.67845 6.42142 2.67861 6.41406 2.6789L6.41511 2.67889ZM9.35976 2.67989C9.35673 2.67984 9.35315 2.6798 9.34954 2.6798C9.17202 2.67974 9.01414 2.7638 8.91355 2.89429L8.9126 2.89558C8.8082 2.7636 8.64807 2.67965 8.46833 2.67959L8.46543 2.67959L8.46559 2.67959C8.18177 2.67949 7.95162 2.90952 7.95152 3.19331C7.95127 3.9282 8.93273 4.17521 8.93273 4.17521C8.93273 4.17521 9.91436 3.92887 9.91461 3.19399L9.91461 3.19235C9.91471 2.90853 9.6847 2.67838 9.40089 2.67828C9.38642 2.67827 9.37209 2.67886 9.35792 2.68003L9.35978 2.67992L9.35976 2.67989ZM3.47046 2.67789L3.46773 2.67789C3.28797 2.67782 3.12778 2.76165 3.02419 2.89239L3.0233 2.89356C2.92184 2.7617 2.76401 2.67754 2.58652 2.67748C2.58291 2.67748 2.57932 2.67753 2.57574 2.67759L2.57628 2.67759C2.29247 2.6775 2.0623 2.90749 2.0622 3.19132C2.06195 3.92618 3.04343 4.17317 3.04343 4.17317C3.04343 4.17317 4.02506 3.92685 4.02531 3.19199L4.02531 3.19032C4.02541 2.9065 3.7954 2.67634 3.51159 2.67625C3.49711 2.67624 3.48279 2.67683 3.46862 2.678L3.47048 2.67786L3.47046 2.67789Z" fill="#323232"/>
</svg>
