<svg width="10" height="11" viewBox="0 0 10 11" fill="none" xmlns="http://www.w3.org/2000/svg">
<path d="M5.25616 0.709412C7.83028 0.714772 9.91267 2.80585 9.90731 5.37997C9.90195 7.95409 7.81087 10.0365 5.23675 10.0311C2.66263 10.0258 0.580241 7.93468 0.585601 5.36056C0.590961 2.78644 2.68204 0.704052 5.25616 0.709412ZM5.23844 9.22054C7.36488 9.22497 9.0923 7.50473 9.09673 5.37828C9.10116 3.25183 7.38092 1.52442 5.25447 1.51999C3.12803 1.51556 1.40061 3.2358 1.39618 5.36225C1.39428 7.48768 3.11301 9.21357 5.23819 9.22053L5.23843 9.22053L5.23844 9.22054ZM7.56794 5.7804L2.92329 5.77072L2.92497 4.96014L7.56962 4.96982L7.56794 5.7804ZM5.64691 7.69343L4.83634 7.69175L4.84601 3.0471L5.65658 3.04878L5.64691 7.69343Z" fill="black" fill-opacity="0.5"/>
</svg>
