<svg width="121" height="23" viewBox="0 0 121 23" fill="none" xmlns="http://www.w3.org/2000/svg">
<path d="M17.3542 3.19777L17.3147 22.1714L12.6929 22.1618L12.7091 14.3507L5.51969 14.3357L5.50343 22.1468L0.881639 22.1372L0.921148 3.16355L5.54294 3.17318L5.52746 10.6059L12.7169 10.6208L12.7324 3.18815L17.3542 3.19777Z" fill="#1F1F1F"/>
<path d="M27.5158 22.4089C26.0383 22.4058 24.7056 22.0877 23.5176 21.4546C22.3477 20.8215 21.4216 19.9186 20.7394 18.746C20.0751 17.5734 19.7446 16.2033 19.7479 14.6357C19.7511 13.086 20.0963 11.7264 20.7835 10.5566C21.4706 9.36876 22.4095 8.46076 23.6001 7.83259C24.7906 7.20441 26.1246 6.89186 27.6022 6.89494C29.0797 6.89801 30.4124 7.21612 31.6003 7.84925C32.7883 8.48238 33.7233 9.39427 34.4056 10.5849C35.0878 11.7576 35.4274 13.1187 35.4241 14.6683C35.4209 16.2179 35.0667 17.5866 34.3615 18.7744C33.6743 19.9441 32.7265 20.8431 31.5179 21.4712C30.3274 22.0994 28.9933 22.412 27.5158 22.4089ZM27.5241 18.4088C28.4071 18.4106 29.1555 18.0878 29.7695 17.4404C30.4015 16.7931 30.7188 15.8658 30.7213 14.6585C30.7238 13.4513 30.4194 12.5227 29.8081 11.8727C29.2148 11.2228 28.4768 10.8969 27.5938 10.8951C26.6929 10.8932 25.9445 11.216 25.3485 11.8634C24.7526 12.4928 24.4533 13.4202 24.4508 14.6454C24.4483 15.8527 24.7346 16.7813 25.3099 17.4311C25.9031 18.081 26.6412 18.4069 27.5241 18.4088ZM57.1361 7.01049C59.01 7.01439 60.4954 7.58508 61.5921 8.72254C62.7069 9.86004 63.2622 11.4378 63.258 13.4559L63.2397 22.2671L58.6449 22.2575L58.662 14.068C58.664 13.095 58.4043 12.3467 57.8828 11.8231C57.3794 11.2814 56.6773 11.0097 55.7763 11.0078C54.8754 11.0059 54.1631 11.2747 53.6394 11.8142C53.1338 12.3357 52.88 13.083 52.878 14.056L52.8609 22.2455L48.2662 22.2359L48.2832 14.0464C48.2853 13.0734 48.0255 12.3251 47.5041 11.8014C47.0007 11.2598 46.2985 10.9881 45.3976 10.9862C44.4967 10.9843 43.7844 11.2531 43.2607 11.7926C42.7551 12.3141 42.5013 13.0613 42.4992 14.0344L42.4822 22.2238L37.8604 22.2142L37.8918 7.13259L42.5136 7.14221L42.5096 9.03417C42.9794 8.40449 43.5931 7.91026 44.3506 7.55146C45.1082 7.17464 45.9645 6.98723 46.9195 6.98922C48.0547 6.99158 49.0632 7.23693 49.9451 7.72528C50.845 8.21366 51.5463 8.90884 52.049 9.81082C52.5732 8.98305 53.2864 8.30883 54.1884 7.78817C55.0904 7.2675 56.073 7.00828 57.1361 7.01049ZM68.8311 5.62938C68.0203 5.62769 67.3541 5.39206 66.8325 4.92249C66.329 4.43493 66.078 3.83979 66.0795 3.13706C66.081 2.41632 66.3345 1.82223 66.84 1.35479C67.3635 0.869374 68.0307 0.62751 68.8416 0.629199C69.6344 0.630849 70.2825 0.875452 70.7861 1.36301C71.3076 1.83258 71.5677 2.42774 71.5662 3.14849C71.5647 3.85122 71.3022 4.44529 70.7786 4.9307C70.2731 5.39814 69.624 5.63103 68.8311 5.62938ZM71.1253 7.20179L71.0939 22.2834L66.4721 22.2738L66.5035 7.19216L71.1253 7.20179ZM88.6762 14.5359C88.6753 14.9684 88.6473 15.4188 88.5923 15.8872L78.1324 15.8654C78.2025 16.8025 78.4984 17.5239 79.0198 18.0295C79.5594 18.5171 80.2166 18.7617 80.9914 18.7633C82.1446 18.7657 82.9474 18.2809 83.3999 17.3088L88.319 17.3191C88.0647 18.3096 87.6033 19.2006 86.935 19.992C86.2847 20.7835 85.4635 21.4034 84.4716 21.8518C83.4796 22.3002 82.371 22.5231 81.1457 22.5206C79.6682 22.5175 78.3535 22.1994 77.2016 21.5664C76.0497 20.9333 75.1507 20.0305 74.5044 18.8579C73.8582 17.6854 73.5367 16.3153 73.54 14.7477C73.5432 13.18 73.8614 11.8113 74.4945 10.6414C75.1456 9.47151 76.0484 8.57246 77.2029 7.9442C78.3574 7.31595 79.6825 7.00338 81.178 7.0065C82.6375 7.00954 83.9342 7.31855 85.0681 7.93355C86.202 8.54855 87.0831 9.4243 87.7114 10.5608C88.3577 11.6973 88.6793 13.0224 88.6762 14.5359ZM83.9488 13.3098C83.9504 12.517 83.6815 11.8858 83.1419 11.4162C82.6023 10.9466 81.9271 10.7109 81.1163 10.7092C80.3414 10.7076 79.6833 10.9315 79.1418 11.3808C78.6183 11.8302 78.2927 12.4692 78.1648 13.2978L83.9488 13.3098ZM97.2331 22.5541C95.9177 22.5513 94.747 22.3237 93.7208 21.8711C92.6947 21.4185 91.8851 20.8041 91.2921 20.0281C90.6992 19.234 90.3677 18.3504 90.2976 17.3773L94.8654 17.3868C94.9183 17.9094 95.1607 18.3334 95.5925 18.6586C96.0242 18.9838 96.5555 19.1471 97.1861 19.1484C97.7627 19.1496 98.2044 19.0424 98.5112 18.8269C98.836 18.5933 98.9988 18.2963 98.9995 17.9359C99.0004 17.5035 98.7758 17.1877 98.3258 16.9886C97.8758 16.7714 97.1465 16.5356 96.138 16.2813C95.0574 16.0268 94.157 15.7636 93.4368 15.4918C92.7167 15.202 92.0959 14.7593 91.5746 14.1636C91.0534 13.5498 90.7938 12.7295 90.7959 11.7024C90.7977 10.8375 91.0336 10.0542 91.5036 9.35242C91.9916 8.63268 92.6955 8.06656 93.6153 7.65404C94.5531 7.24156 95.6617 7.03666 96.941 7.03932C98.833 7.04326 100.319 7.51484 101.398 8.45406C102.495 9.39332 103.123 10.6379 103.282 12.1879L99.0115 12.179C98.9405 11.6563 98.7071 11.2414 98.3114 10.9342C97.9336 10.6271 97.4294 10.4729 96.7988 10.4716C96.2582 10.4705 95.8435 10.5777 95.5548 10.7933C95.2661 10.9909 95.1213 11.2699 95.1206 11.6303C95.1197 12.0628 95.3443 12.3876 95.7943 12.6047C96.2623 12.8219 96.9826 13.0397 97.9552 13.2579C99.0717 13.5485 99.9811 13.8387 100.683 14.1285C101.385 14.4002 101.997 14.852 102.518 15.4837C103.058 16.0975 103.335 16.9269 103.351 17.972C103.349 18.8549 103.095 19.6472 102.589 20.3489C102.101 21.0326 101.388 21.5717 100.451 21.9662C99.5309 22.3607 98.4583 22.5566 97.2331 22.5541ZM120.402 14.602C120.401 15.0344 120.374 15.4849 120.318 15.9532L109.859 15.9314C109.929 16.8686 110.225 17.5899 110.746 18.0955C111.286 18.5832 111.943 18.8278 112.718 18.8294C113.871 18.8318 114.674 18.347 115.126 17.3749L120.045 17.3851C119.791 18.3756 119.33 19.2666 118.661 20.058C118.011 20.8495 117.19 21.4695 116.198 21.9179C115.206 22.3663 114.097 22.5892 112.872 22.5866C111.394 22.5836 110.08 22.2655 108.928 21.6324C107.776 20.9994 106.877 20.0966 106.231 18.924C105.584 17.7514 105.263 16.3814 105.266 14.8137C105.269 13.2461 105.588 11.8773 106.221 10.7074C106.872 9.53758 107.775 8.63852 108.929 8.01027C110.084 7.38202 111.409 7.06945 112.904 7.07256C114.364 7.0756 115.66 7.38462 116.794 7.99962C117.928 8.61462 118.809 9.49036 119.438 10.6268C120.084 11.7634 120.406 13.0884 120.402 14.602ZM115.675 13.3759C115.677 12.5831 115.408 11.9518 114.868 11.4822C114.329 11.0126 113.653 10.777 112.842 10.7753C112.068 10.7737 111.41 10.9975 110.868 11.4469C110.345 11.8963 110.019 12.5352 109.891 13.3638L115.675 13.3759Z" fill="#F0394F"/>
</svg>
