<svg width="16" height="14" viewBox="0 0 16 14" fill="none" xmlns="http://www.w3.org/2000/svg">
<path d="M2.63889 6.09119L7.75689 11.2127L12.8784 6.09468C13.3312 5.64218 13.5857 5.02834 13.5859 4.3882C13.5861 3.74806 13.332 3.13405 12.8796 2.68124C12.6555 2.45704 12.3895 2.27916 12.0967 2.15776C11.8039 2.03636 11.49 1.97382 11.1731 1.97372C10.5329 1.9735 9.91892 2.22758 9.46612 2.68008L7.75922 4.38581L6.05349 2.67972C5.59984 2.23299 4.98804 1.98361 4.35136 1.98591C3.71468 1.98821 3.1047 2.242 2.65429 2.692C2.20388 3.142 1.94953 3.75174 1.94665 4.38842C1.94376 5.0251 2.19258 5.63713 2.63889 6.09119ZM7.19142 1.54096L7.76 2.10992L8.32896 1.54134C8.70201 1.16527 9.14567 0.866582 9.63446 0.662429C10.1233 0.458276 10.6476 0.352678 11.1773 0.351699C11.707 0.35072 12.2317 0.454378 12.7212 0.656722C13.2108 0.859066 13.6555 1.15611 14.03 1.5308C14.4044 1.9055 14.7012 2.35046 14.9032 2.84014C15.1052 3.32983 15.2085 3.85459 15.2071 4.3843C15.2058 4.91402 15.0998 5.43825 14.8953 5.9269C14.6909 6.41556 14.3919 6.85901 14.0155 7.2318L8.32589 12.9184C8.25115 12.9932 8.1624 13.0525 8.06472 13.0929C7.96705 13.1334 7.86235 13.1542 7.75663 13.1541C7.65091 13.1541 7.54623 13.1332 7.44858 13.0927C7.35093 13.0522 7.26223 12.9928 7.18754 12.918L1.50096 7.22834C1.11977 6.85649 0.816208 6.41265 0.607886 5.92256C0.399564 5.43248 0.290628 4.90591 0.287398 4.3734C0.284168 3.84088 0.386707 3.31303 0.589068 2.82045C0.791429 2.32788 1.08958 1.88039 1.46624 1.50394C1.84289 1.12749 2.29054 0.82958 2.78322 0.627485C3.27591 0.425391 3.80382 0.323137 4.33633 0.326655C4.86884 0.330173 5.39535 0.439393 5.88532 0.64798C6.37529 0.856567 6.81897 1.16037 7.19062 1.54176L7.19142 1.54096Z" fill="#323232"/>
</svg>
