<svg width="14" height="14" viewBox="0 0 14 14" fill="none" xmlns="http://www.w3.org/2000/svg">
<path d="M5.34397 0.471242L9.38156 0.472619L9.38107 1.92662C9.81633 2.11038 10.1917 2.32989 10.5339 2.59064L10.5211 2.5813L11.8003 1.84355L13.8224 5.36736L12.5415 6.1023C12.5687 6.29682 12.5841 6.52154 12.5841 6.7499C12.584 6.97825 12.5684 7.20296 12.5382 7.42303L12.5411 7.39748L13.8214 8.13328L11.797 11.6557L10.5177 10.9171C10.1881 11.1683 9.81261 11.3875 9.41144 11.5581L9.37724 11.571L9.37673 13.0552L5.3397 13.0538L5.34019 11.6194C4.90492 11.4356 4.52956 11.2161 4.18734 10.9553L4.20014 10.9647L2.92038 11.7024L0.898311 8.17862L2.17974 7.44368C2.15216 7.24581 2.13649 7.01719 2.13657 6.7849C2.13665 6.55262 2.1525 6.324 2.18313 6.10013L2.18019 6.12615L0.899827 5.38922L2.92431 1.8668L4.20355 2.60541C4.53299 2.35385 4.90828 2.13425 5.30932 1.96332L5.34349 1.95038L5.34397 0.471242ZM8.54246 1.31117L6.1825 1.31037L6.18208 2.53563L5.90243 2.63396C5.36657 2.82424 4.9041 3.09463 4.50348 3.43553L4.50968 3.43037L4.28593 3.621L3.23255 3.01499L2.04516 5.0837L3.10749 5.69531L3.05148 5.98946C3.00264 6.22954 2.97463 6.50551 2.97454 6.788C2.97444 7.0705 3.00226 7.34649 3.05535 7.61334L3.05094 7.58658L3.10675 7.88076L2.04403 8.49163L3.22999 10.5611L4.28377 9.94973L4.50738 10.1405C4.90066 10.4762 5.36178 10.7468 5.86554 10.9282L5.89623 10.9379L6.17581 11.0364L6.17541 12.2152L8.53533 12.216L8.53574 10.9908L8.81539 10.8924C9.35252 10.7026 9.81616 10.4321 10.2177 10.0908L10.2115 10.096L10.4352 9.90539L11.4886 10.5114L12.676 8.4427L11.6103 7.83444L11.6663 7.53975C11.7149 7.3033 11.7427 7.03151 11.7428 6.75325C11.7429 6.47498 11.7152 6.20317 11.6625 5.94044L11.6669 5.96668L11.6111 5.67194L12.6766 5.0605L11.4906 2.99098L10.4374 3.60074L10.2138 3.40885C9.82049 3.07314 9.35938 2.80251 8.85561 2.62112L8.82491 2.61149L8.54532 2.51297L8.54246 1.31117ZM7.36149 4.20755C8.77293 4.20803 9.91676 5.35262 9.91628 6.76407C9.91579 8.17553 8.7712 9.31935 7.35975 9.31887C5.9483 9.31839 4.80448 8.17378 4.80496 6.76233C4.80704 5.35153 5.95067 4.20866 7.36133 4.20755L7.36149 4.20755ZM7.36003 8.48002C8.30821 8.48034 9.07712 7.71196 9.07745 6.76378C9.07777 5.81559 8.30938 5.04671 7.3612 5.04639C6.41303 5.04606 5.64411 5.81444 5.64379 6.76263C5.64445 7.7104 6.41225 8.47874 7.35995 8.48002L7.36003 8.48002Z" fill="#323232"/>
</svg>
